<svg width="50" height="50" viewBox="0 0 50 50" fill="none" xmlns="http://www.w3.org/2000/svg">
<circle cx="25" cy="25" r="25" fill="#24D66B"/>
<path d="M10.136 35L15.02 29.288C14.924 29.384 14.756 29.48 14.516 29.576C14.276 29.664 13.96 29.708 13.568 29.708C12.744 29.708 11.948 29.496 11.18 29.072C10.42 28.648 9.792 28.044 9.296 27.26C8.808 26.468 8.564 25.524 8.564 24.428C8.564 23.348 8.828 22.392 9.356 21.56C9.892 20.728 10.604 20.072 11.492 19.592C12.38 19.112 13.364 18.872 14.444 18.872C15.548 18.872 16.544 19.1 17.432 19.556C18.32 20.004 19.028 20.656 19.556 21.512C20.092 22.36 20.36 23.376 20.36 24.56C20.36 25.864 20.148 26.964 19.724 27.86C19.3 28.748 18.816 29.52 18.272 30.176L14.336 35H10.136ZM14.456 26.84C14.928 26.84 15.352 26.728 15.728 26.504C16.112 26.28 16.416 25.976 16.64 25.592C16.872 25.208 16.988 24.784 16.988 24.32C16.988 23.856 16.872 23.432 16.64 23.048C16.416 22.664 16.112 22.36 15.728 22.136C15.344 21.912 14.92 21.8 14.456 21.8C13.992 21.8 13.568 21.916 13.184 22.148C12.808 22.372 12.504 22.676 12.272 23.06C12.048 23.436 11.936 23.856 11.936 24.32C11.936 24.784 12.048 25.208 12.272 25.592C12.504 25.976 12.812 26.28 13.196 26.504C13.58 26.728 14 26.84 14.456 26.84ZM24.956 35.288C24.364 35.288 23.852 35.076 23.42 34.652C22.996 34.22 22.784 33.708 22.784 33.116C22.784 32.508 22.996 31.992 23.42 31.568C23.852 31.136 24.364 30.92 24.956 30.92C25.564 30.92 26.08 31.136 26.504 31.568C26.928 31.992 27.14 32.508 27.14 33.116C27.14 33.708 26.928 34.22 26.504 34.652C26.08 35.076 25.564 35.288 24.956 35.288ZM38.9771 19.16V28.532H40.8131V31.664H38.9771V35H35.4011V31.664H28.8731V28.82L34.8611 19.16H38.9771ZM35.4011 28.532V23.756H35.3771L32.4851 28.532H35.4011Z" fill="black"/>
</svg>
