<svg width="14" height="15" viewBox="0 0 14 15" fill="none" xmlns="http://www.w3.org/2000/svg">
<g clip-path="url(#clip0_11_465)">
<path d="M6.56567 4.13086C4.70239 4.13086 3.19946 5.63379 3.19946 7.49707C3.19946 9.36035 4.70239 10.8633 6.56567 10.8633C8.42896 10.8633 9.93188 9.36035 9.93188 7.49707C9.93188 5.63379 8.42896 4.13086 6.56567 4.13086ZM6.56567 9.68555C5.36157 9.68555 4.3772 8.7041 4.3772 7.49707C4.3772 6.29004 5.35864 5.30859 6.56567 5.30859C7.77271 5.30859 8.75415 6.29004 8.75415 7.49707C8.75415 8.7041 7.76978 9.68555 6.56567 9.68555ZM10.8547 3.99316C10.8547 4.42969 10.5032 4.77832 10.0696 4.77832C9.63306 4.77832 9.28442 4.42676 9.28442 3.99316C9.28442 3.55957 9.63599 3.20801 10.0696 3.20801C10.5032 3.20801 10.8547 3.55957 10.8547 3.99316ZM13.0842 4.79004C13.0344 3.73828 12.7942 2.80664 12.0237 2.03906C11.2561 1.27148 10.3245 1.03125 9.27271 0.978516C8.18872 0.916992 4.9397 0.916992 3.85571 0.978516C2.80688 1.02832 1.87524 1.26855 1.10474 2.03613C0.334229 2.80371 0.0969238 3.73535 0.0441894 4.78711C-0.017334 5.87109 -0.017334 9.12012 0.0441894 10.2041C0.0939941 11.2559 0.334229 12.1875 1.10474 12.9551C1.87524 13.7227 2.80396 13.9629 3.85571 14.0156C4.9397 14.0771 8.18872 14.0771 9.27271 14.0156C10.3245 13.9658 11.2561 13.7256 12.0237 12.9551C12.7913 12.1875 13.0315 11.2559 13.0842 10.2041C13.1458 9.12012 13.1458 5.87402 13.0842 4.79004ZM11.6838 11.3672C11.4553 11.9414 11.0129 12.3838 10.4358 12.6152C9.57153 12.958 7.52075 12.8789 6.56567 12.8789C5.6106 12.8789 3.55688 12.9551 2.69556 12.6152C2.12134 12.3867 1.67896 11.9443 1.44751 11.3672C1.10474 10.5029 1.18384 8.45215 1.18384 7.49707C1.18384 6.54199 1.10767 4.48828 1.44751 3.62695C1.67603 3.05273 2.11841 2.61035 2.69556 2.37891C3.55981 2.03613 5.6106 2.11523 6.56567 2.11523C7.52075 2.11523 9.57446 2.03906 10.4358 2.37891C11.01 2.60742 11.4524 3.0498 11.6838 3.62695C12.0266 4.49121 11.9475 6.54199 11.9475 7.49707C11.9475 8.45215 12.0266 10.5059 11.6838 11.3672Z" fill="white"/>
</g>
<defs>
<clipPath id="clip0_11_465">
<rect width="13.125" height="15" fill="white"/>
</clipPath>
</defs>
</svg>
