<svg width="11" height="15" viewBox="0 0 11 15" fill="none" xmlns="http://www.w3.org/2000/svg">
<path d="M5.29412 0C2.37143 0 0 2.15993 0 4.82143C0 9.10714 5.29412 15 5.29412 15C5.29412 15 10.5882 9.10714 10.5882 4.82143C10.5882 2.15993 8.2168 0 5.29412 0ZM5.29412 7.5C4.87529 7.5 4.46586 7.37432 4.11762 7.13886C3.76937 6.9034 3.49795 6.56873 3.33767 6.17718C3.17739 5.78562 3.13545 5.35477 3.21716 4.93909C3.29887 4.52342 3.50056 4.1416 3.79671 3.84191C4.09287 3.54223 4.4702 3.33814 4.88098 3.25546C5.29177 3.17278 5.71756 3.21521 6.10451 3.3774C6.49145 3.53959 6.82219 3.81424 7.05488 4.16664C7.28757 4.51903 7.41176 4.93333 7.41176 5.35714C7.41115 5.92527 7.18785 6.46996 6.79084 6.87169C6.39384 7.27342 5.85556 7.49938 5.29412 7.5Z" fill="white"/>
</svg>
